<?xml version="1.0" standalone="no"?>
<!DOCTYPE svg PUBLIC "-//W3C//DTD SVG 20010904//EN"
 "http://www.w3.org/TR/2001/REC-SVG-20010904/DTD/svg10.dtd">
<svg version="1.0" xmlns="http://www.w3.org/2000/svg"
 width="512.000000pt" height="512.000000pt" viewBox="0 0 512.000000 512.000000"
 preserveAspectRatio="xMidYMid meet">
<metadata>
Created by potrace 1.11, written by Peter Selinger 2001-2013
</metadata>
<g transform="translate(0.000000,512.000000) scale(0.100000,-0.100000)"
fill="#000000" stroke="none">
<path d="M2369 5116 c-2 -2 -38 -6 -79 -10 -41 -3 -86 -8 -100 -11 -14 -2 -54
-9 -90 -15 -766 -131 -1462 -650 -1821 -1356 -190 -374 -278 -747 -277 -1169
2 -517 139 -977 414 -1396 420 -638 1088 -1052 1848 -1143 153 -19 517 -14
661 8 351 54 679 173 969 353 506 313 872 761 1072 1312 25 69 47 133 49 141
2 8 10 40 19 70 55 196 81 403 81 665 0 217 -11 331 -50 520 -180 875 -826
1607 -1675 1897 -121 41 -336 94 -465 114 -98 15 -544 31 -556 20z"/>
</g>
</svg>
